<?xml version="1.0" standalone="no"?>
<!DOCTYPE svg PUBLIC "-//W3C//DTD SVG 20010904//EN"
 "http://www.w3.org/TR/2001/REC-SVG-20010904/DTD/svg10.dtd">
<svg version="1.0" xmlns="http://www.w3.org/2000/svg"
 width="16.000000pt" height="16.000000pt" viewBox="0 0 16.000000 16.000000"
 preserveAspectRatio="xMidYMid meet">
<metadata>
Created by potrace 1.11, written by Peter Selinger 2001-2013
</metadata>
<g transform="translate(0.000000,16.000000) scale(0.012500,-0.012500)"
fill="#000000" stroke="none">
<path d="M598 1115 c-2 -2 -26 -5 -55 -9 -191 -22 -392 -170 -477 -349 -45
-97 -58 -150 -62 -253 -4 -109 13 -202 55 -295 l20 -45 64 1 c47 1 73 7 100
24 42 26 44 32 21 67 l-17 24 -54 -30 c-30 -17 -56 -30 -58 -28 -2 2 -12 26
-23 53 -34 88 -50 233 -26 242 7 3 37 0 65 -6 29 -6 54 -10 56 -7 2 2 6 19 10
39 l5 35 -54 7 c-30 4 -60 10 -66 14 -26 16 40 163 108 241 l30 35 48 -54 48
-53 29 24 29 25 -42 51 c-23 27 -42 54 -42 58 0 30 204 112 283 114 4 0 7 -33
7 -74 l0 -74 38 1 37 2 3 72 3 73 37 -6 c90 -13 252 -82 252 -107 0 -5 -19
-32 -42 -59 l-42 -51 29 -24 29 -25 48 53 48 54 30 -35 c16 -19 42 -54 56 -78
26 -43 67 -152 60 -159 -4 -4 -23 -8 -82 -17 -21 -4 -40 -8 -42 -11 -2 -2 -1
-20 2 -40 7 -35 8 -36 44 -28 20 4 51 7 67 8 l30 0 -2 -70 c-2 -61 -38 -204
-57 -222 -3 -3 -23 5 -43 19 -62 40 -70 40 -92 5 l-20 -31 42 -25 c30 -18 57
-25 103 -26 l63 -2 21 45 c42 89 60 186 56 296 -3 56 -11 122 -20 147 -86 271
-313 448 -593 463 -35 1 -64 2 -65 1z"/>
<path d="M446 699 c5 -8 44 -58 87 -111 42 -52 77 -100 77 -106 0 -18 44 -42
67 -36 11 3 25 15 30 27 12 26 0 67 -21 67 -11 0 -139 89 -235 164 -12 9 -13
8 -5 -5z"/>
<path d="M380 227 l0 -62 260 0 260 -1 0 63 0 63 -260 0 -260 0 0 -63z"/>
</g>
</svg>
