<?xml version="1.0" standalone="no"?>
<!DOCTYPE svg PUBLIC "-//W3C//DTD SVG 20010904//EN"
 "http://www.w3.org/TR/2001/REC-SVG-20010904/DTD/svg10.dtd">
<svg version="1.0" xmlns="http://www.w3.org/2000/svg"
 width="16.000000pt" height="16.000000pt" viewBox="0 0 16.000000 16.000000"
 preserveAspectRatio="xMidYMid meet">
<metadata>
Created by potrace 1.11, written by Peter Selinger 2001-2013
</metadata>
<g transform="translate(0.000000,16.000000) scale(0.003125,-0.003125)"
fill="#000000" stroke="none">
<path d="M2389 4456 c-2 -2 -38 -6 -79 -10 -82 -7 -141 -14 -180 -21 -14 -3
-39 -7 -57 -10 -49 -8 -262 -63 -313 -82 -142 -50 -195 -71 -287 -114 -56 -26
-130 -64 -165 -85 -35 -20 -72 -42 -83 -48 -43 -24 -184 -122 -250 -175 -400
-319 -698 -746 -851 -1221 -25 -76 -73 -264 -80 -310 -2 -14 -5 -34 -8 -45
-27 -129 -40 -501 -24 -680 29 -304 128 -647 262 -905 l44 -85 240 -3 241 -2
168 96 c92 53 171 99 175 103 3 3 -29 65 -71 137 -77 131 -77 132 -102 118
-13 -8 -114 -66 -224 -129 l-200 -116 -41 88 c-83 174 -157 418 -180 588 -3
28 -8 58 -10 68 -17 93 -23 410 -8 468 4 14 11 15 42 8 20 -4 51 -10 67 -13
72 -14 143 -26 175 -31 19 -3 46 -7 60 -10 14 -3 41 -7 60 -10 19 -4 53 -10
75 -15 22 -5 43 -10 46 -10 4 0 10 15 13 33 3 17 8 43 11 57 3 14 8 41 11 60
3 19 7 41 10 48 2 8 7 36 10 63 5 43 4 49 -12 50 -11 0 -26 2 -34 4 -8 2 -58
10 -110 20 -52 9 -106 18 -120 21 -14 2 -40 7 -59 10 -18 3 -43 8 -55 10 -11
2 -37 7 -56 10 -81 12 -91 15 -86 32 3 10 18 62 34 117 98 339 260 621 540
934 l39 43 74 -88 c41 -49 76 -91 79 -94 3 -3 25 -30 50 -60 25 -30 47 -57 50
-60 3 -3 31 -35 62 -72 l56 -66 38 33 c22 18 73 61 114 96 41 34 76 65 78 69
2 5 -62 84 -290 353 -86 101 -88 82 21 154 144 95 149 98 249 147 265 132 586
222 822 230 l35 1 1 -275 c1 -151 2 -282 3 -291 1 -13 22 -15 153 -15 l153 1
0 293 0 292 55 -5 c99 -11 124 -14 210 -30 293 -56 565 -167 823 -334 59 -39
107 -74 107 -78 0 -5 -81 -105 -180 -223 -99 -118 -179 -217 -179 -220 0 -3
53 -49 117 -102 91 -76 119 -95 127 -85 12 17 54 67 224 269 l133 159 30 -33
c122 -134 188 -216 259 -322 127 -190 253 -464 304 -663 8 -34 18 -69 21 -77
4 -10 -6 -16 -38 -21 -24 -4 -52 -9 -63 -11 -11 -3 -114 -21 -228 -42 l-209
-37 5 -35 c3 -19 10 -60 16 -90 5 -30 12 -71 15 -90 16 -92 16 -92 44 -85 15
3 38 8 52 10 14 3 34 7 45 9 11 2 40 7 65 11 25 4 54 9 65 11 45 9 168 29 236
40 l47 6 2 -73 c5 -169 -2 -354 -16 -423 -2 -12 -6 -37 -9 -56 -3 -19 -9 -57
-15 -85 -6 -27 -12 -59 -14 -71 -18 -91 -110 -352 -160 -451 l-31 -63 -225
129 -224 130 -44 -77 c-25 -42 -59 -102 -78 -132 -18 -30 -30 -58 -26 -61 4
-4 82 -50 174 -103 l167 -96 240 0 241 0 32 63 c30 58 67 138 108 232 50 114
132 418 146 540 3 28 7 52 9 55 10 16 19 185 20 345 0 188 -8 304 -30 435 -4
22 -7 42 -6 45 0 2 -5 19 -10 37 -5 18 -12 49 -15 68 -3 19 -7 42 -10 50 -3 8
-17 53 -30 100 -51 176 -127 356 -217 515 -352 623 -937 1071 -1617 1240 -58
14 -121 28 -140 31 -19 2 -44 6 -55 9 -11 2 -42 7 -70 11 -27 3 -61 8 -75 10
-33 6 -446 15 -451 10z"/>
<path d="M1721 2865 c61 -75 535 -666 588 -734 36 -46 80 -100 98 -120 17 -20
37 -56 43 -81 35 -136 188 -197 309 -123 81 50 114 141 87 236 -21 72 -84 129
-156 142 -48 8 14 -35 -765 538 -244 180 -223 166 -204 142z"/>
<path d="M1519 1150 c-1 -3 -2 -114 -3 -248 l-1 -242 1043 0 c573 0 1043 3
1043 8 4 26 3 475 -1 481 -6 7 -2079 9 -2081 1z"/>
</g>
</svg>
